<?xml version="1.0" encoding="UTF-8" standalone="no"?>
<svg
   xmlns:dc="http://purl.org/dc/elements/1.1/"
   xmlns:cc="http://creativecommons.org/ns#"
   xmlns:rdf="http://www.w3.org/1999/02/22-rdf-syntax-ns#"
   xmlns:svg="http://www.w3.org/2000/svg"
   xmlns="http://www.w3.org/2000/svg"
   id="svg4500"
   version="1.1"
   width="708.59998"
   height="241.5"
   viewBox="0 0 708.59998 241.5"
   enable-background="new">
  <metadata
     id="metadata4506">
    <rdf:RDF>
      <cc:Work
         rdf:about="">
        <dc:format>image/svg+xml</dc:format>
        <dc:type
           rdf:resource="http://purl.org/dc/dcmitype/StillImage" />
        <dc:title></dc:title>
      </cc:Work>
    </rdf:RDF>
  </metadata>
  <defs
     id="defs4504" />
  <g
     id="layer2"
     style="display:inline;opacity:1" />
  <g
     id="layer1"
     style="display:inline;opacity:1">
    <g
       id="g4762"
       transform="matrix(1.176038,0,0,1.2187997,-256.05224,-306.83374)">
      <path
         id="path4730"
         style="fill:none;stroke:#1b1918;stroke-width:1.41729999;stroke-linecap:butt;stroke-linejoin:miter;stroke-dasharray:none"
         d="m 257.6466,294.6671 113.3858,0" />
      <path
         id="path4732"
         style="fill:none;stroke:#1b1918;stroke-width:1.13390005;stroke-linecap:butt;stroke-linejoin:miter;stroke-dasharray:none"
         d="m 314.3395,396.1474 0,-102.0472" />
      <path
         id="path4734"
         style="fill:none;stroke:#1b1918;stroke-width:1.13390005;stroke-linecap:butt;stroke-linejoin:miter;stroke-dasharray:none"
         d="M 314.2461,397.5647 371.1258,294.9505" />
      <path
         id="path4736"
         style="fill:none;stroke:#1b1918;stroke-width:1.13390005;stroke-linecap:butt;stroke-linejoin:miter;stroke-dasharray:none"
         d="M 314.7164,397.5647 257.8367,294.9505" />
      <path
         id="path4738"
         style="fill:none;stroke:#1b1918;stroke-width:1.13390005;stroke-linecap:butt;stroke-linejoin:miter;stroke-dasharray:none"
         d="M 314.5947,396.9981 344.6986,266.6038" />
      <path
         id="path4740"
         style="fill:none;stroke:#1b1918;stroke-width:1.13390005;stroke-linecap:butt;stroke-linejoin:miter;stroke-dasharray:none"
         d="M 314.0844,396.9981 283.9805,266.6038" />
      <path
         id="path4742"
         style="fill:none;stroke:#1b1918;stroke-width:1.13390005;stroke-linecap:butt;stroke-linejoin:miter;stroke-dasharray:none"
         d="m 257.3574,295.2341 25.5233,-28.3466" />
      <path
         id="path4744"
         style="fill:none;stroke:#1b1918;stroke-width:1.13390005;stroke-linecap:butt;stroke-linejoin:miter;stroke-dasharray:none"
         d="M 371.6051,295.2341 346.0818,266.8875" />
      <path
         id="path4746"
         style="fill:none;stroke:#1b1918;stroke-width:1.13390005;stroke-linecap:butt;stroke-linejoin:miter;stroke-dasharray:none"
         d="m 282.4498,266.8876 63.7795,0" />
      <path
         id="path4748"
         style="fill:none;stroke:#1b1918;stroke-width:1.13390005;stroke-linecap:butt;stroke-linejoin:miter;stroke-dasharray:none"
         d="m 313.7206,395.5805 -9.5338,-90.7087" />
      <path
         id="path4750"
         style="fill:none;stroke:#1b1918;stroke-width:1.13390005;stroke-linecap:butt;stroke-linejoin:miter;stroke-dasharray:none"
         d="m 314.9584,395.5805 9.5339,-90.7087" />
      <path
         id="path4752"
         style="fill:none;stroke:#1b1918;stroke-width:1.13390005;stroke-linecap:butt;stroke-linejoin:miter;stroke-dasharray:none"
         d="M 312.5159,392.1933 280.4466,320.1645" />
      <path
         id="path4754"
         style="fill:none;stroke:#1b1918;stroke-width:1.13390005;stroke-linecap:butt;stroke-linejoin:miter;stroke-dasharray:none"
         d="m 316.1632,393.0437 32.0692,-72.0288" />
    </g>
    <flowRoot
       xml:space="preserve"
       id="flowRoot4777"
       style="font-style:normal;font-weight:normal;font-size:40px;line-height:125%;font-family:sans-serif;letter-spacing:0px;word-spacing:0px;fill:#000000;fill-opacity:1;stroke:none;stroke-width:1px;stroke-linecap:butt;stroke-linejoin:miter;stroke-opacity:1"><flowRegion
         id="flowRegion4779"><rect
           id="rect4781"
           width="149.00429"
           height="113.49031"
           x="193.78278"
           y="21.467772" /></flowRegion><flowPara
         id="flowPara4783" /></flowRoot>    <g
       id="text4785"
       style="font-style:normal;font-weight:normal;font-size:172.5px;line-height:125%;font-family:sans-serif;letter-spacing:0px;word-spacing:0px;fill:#000000;fill-opacity:1;stroke:none;stroke-width:1px;stroke-linecap:butt;stroke-linejoin:miter;stroke-opacity:1">
      <path
         id="path3419"
         style="font-style:normal;font-variant:normal;font-weight:500;font-stretch:expanded;font-size:122.5px;font-family:'Engravers MT';-inkscape-font-specification:'Engravers MT Medium Expanded'"
         d="m 321.39844,131.98224 2.69165,0 q 7.71606,0 11.42456,-3.7085 3.76831,-3.76831 3.76831,-11.48437 0,-4.18701 0,-8.01514 0,-3.82812 0,-12.082519 0,-7.955322 0,-17.705078 0,-9.80957 0,-12.979736 -0.53833,-3.828125 -1.49536,-6.04126 -0.95703,-2.272949 -2.93091,-3.828125 -3.58887,-3.170166 -10.7666,-3.170166 l -2.8711,0 0,-2.213135 52.69654,0 0,2.213135 -1.85425,0 q -7.71607,0 -11.48438,3.768311 -3.70849,3.708496 -3.70849,11.42456 l 0,22.43042 44.98047,0 0,-22.43042 q 0,-7.775879 -3.7085,-11.484375 -3.7085,-3.708496 -11.48437,-3.708496 l -1.73462,0 0,-2.213135 52.21801,0 0,2.213135 -2.45239,0 q -7.65625,0 -11.42456,3.768311 -3.76831,3.708496 -3.76831,11.42456 l 0,48.629153 q 0,7.65625 3.82813,11.42456 3.82812,3.76831 11.36474,3.76831 l 2.45239,0 0,2.33276 -52.21801,0 0,-2.33276 1.73462,0 q 7.71606,0 11.42456,-3.7085 3.76831,-3.76831 3.76831,-11.48437 l 0,-23.74634 -44.98047,0 0,23.74634 q 0,7.65625 3.82812,11.42456 3.82813,3.76831 11.36475,3.76831 l 1.85425,0 0,2.33276 -52.51709,0 0,-2.33276 z" />
    </g>
    <g
       id="text5348"
       style="font-style:normal;font-weight:normal;font-size:40px;line-height:125%;font-family:sans-serif;letter-spacing:0px;word-spacing:0px;fill:#000000;fill-opacity:1;stroke:none;stroke-width:1px;stroke-linecap:butt;stroke-linejoin:miter;stroke-opacity:1">
      <path
         id="path3416"
         style="font-style:normal;font-variant:normal;font-weight:500;font-stretch:expanded;font-size:172.5px;font-family:'Engravers MT';-inkscape-font-specification:'Engravers MT Medium Expanded'"
         d="m 185.00301,16.747757 137.9663,0 0,59.718018 -2.69531,0.168457 Q 318.16829,54.229446 306.79744,38.1418 293.32088,19.864212 272.60066,19.864212 l -6.14868,0 0,89.871828 q 0,21.39404 21.30982,21.39404 l 17.77221,0 0,3.28491 -102.75879,0 0,-3.28491 17.60376,0 q 21.39405,0 21.39405,-21.39404 l 0,-89.871828 -7.58057,0 q -21.05713,0 -34.19678,19.709473 -6.48559,9.686279 -9.85473,23.078613 -1.09498,4.54834 -2.18995,13.813477 l -2.94799,0 0,-59.718018 z" />
    </g>
    <g
       id="text5352"
       style="font-style:normal;font-weight:normal;font-size:40px;line-height:125%;font-family:sans-serif;letter-spacing:0px;word-spacing:0px;fill:#000000;fill-opacity:1;stroke:none;stroke-width:1px;stroke-linecap:butt;stroke-linejoin:miter;stroke-opacity:1">
      <path
         id="path3413"
         style="font-style:normal;font-variant:normal;font-weight:500;font-stretch:expanded;font-size:122.5px;font-family:'Engravers MT';-inkscape-font-specification:'Engravers MT Medium Expanded'"
         d="m 436.397,50.754211 88.88428,0 0,32.35962 -1.79443,0 q -2.4524,-8.493653 -4.42627,-12.680664 -1.91407,-4.246827 -5.02442,-8.015137 -3.76831,-4.486084 -8.19458,-6.400147 -7.35717,-3.050537 -17.88452,-3.050537 l -16.44897,0 0,39.716797 4.42627,0 q 9.86938,0 15.67138,-8.493652 2.99073,-4.366455 4.42627,-10.407715 0.71778,-2.572022 1.31592,-7.596436 l 2.09351,0 0,54.79004 -2.09351,0 q -0.71777,-4.42627 -1.73462,-8.31421 -0.95703,-3.94775 -2.21313,-6.40015 -1.19629,-2.45239 -3.11035,-4.90478 -5.38331,-6.639406 -15.3125,-6.639406 l -3.46924,0 0,37.384036 13.75732,0 q 6.10108,0 10.94605,-0.8374 4.90478,-0.89722 8.79272,-2.69166 3.88794,-1.85424 7.29736,-4.78515 5.86182,-4.9646 9.0918,-12.38159 1.85425,-4.24683 3.88794,-11.484378 l 2.21314,0 0,34.393308 -90.97779,0 -0.11963,-2.21313 2.27295,0 q 15.19287,0 15.19287,-15.3125 l 0,-48.629153 q 0,-7.775879 -3.70849,-11.484375 -3.7085,-3.708496 -11.48438,-3.708496 l -2.27295,0 0,-2.213135 z" />
    </g>
    <g
       id="text5377"
       style="font-style:normal;font-weight:normal;font-size:40px;line-height:125%;font-family:sans-serif;letter-spacing:0px;word-spacing:0px;fill:#000000;fill-opacity:1;stroke:none;stroke-width:1px;stroke-linecap:butt;stroke-linejoin:miter;stroke-opacity:1">
      <path
         id="path3410"
         style="font-style:normal;font-variant:normal;font-weight:500;font-stretch:expanded;font-size:172.5px;font-family:'Engravers MT';-inkscape-font-specification:'Engravers MT Medium Expanded'"
         d="m 20.18,105.77376 49.189453,0 44.304197,90.04028 43.96729,-90.04028 46.40991,0 0,3.11645 -4.29565,0 q -10.86548,0 -16.17188,5.3064 -5.22217,5.22217 -5.22217,16.08765 l 0,68.47778 q 0,10.78125 5.3064,16.08765 5.3064,5.30639 16.08765,5.30639 l 4.29565,0 0,3.28491 -76.05835,0 0,-3.28491 5.05371,0 q 10.78125,0 16.00342,-5.22217 5.3064,-5.30639 5.3064,-16.17187 l 0,-80.01709 -0.33692,0 -50.53711,104.69604 -2.86377,0 -51.126706,-104.35913 -0.336914,0 0,75.8899 q 0,7.91748 3.032226,13.47656 3.032227,5.47485 8.928223,8.50708 5.895996,2.948 14.318848,3.20068 l 0,3.28491 -55.253907,0 0,-3.28491 1.1792,0 q 11.370849,0 17.856445,-6.65405 6.485596,-6.65405 6.485596,-18.0249 l 0,-65.19287 q 0,-10.94971 -5.222168,-16.17188 -5.222168,-5.22217 -16.171875,-5.22217 l -4.127198,0 0,-3.11645 z" />
    </g>
    <g
       id="text5381"
       style="font-style:normal;font-weight:normal;font-size:40px;line-height:125%;font-family:sans-serif;letter-spacing:0px;word-spacing:0px;fill:#000000;fill-opacity:1;stroke:none;stroke-width:1px;stroke-linecap:butt;stroke-linejoin:miter;stroke-opacity:1">
      <path
         id="path3407"
         style="font-style:normal;font-variant:normal;font-weight:500;font-stretch:expanded;font-size:122.5px;font-family:'Engravers MT';-inkscape-font-specification:'Engravers MT Medium Expanded'"
         d="m 235.47948,157.76472 -16.38916,37.26441 33.19702,0 -16.80786,-37.26441 z m 6.34033,-19.55932 2.21313,0 33.61573,73.09326 q 1.61499,3.40942 3.58886,5.62256 2.03369,2.21313 4.5459,3.22998 2.51221,0.95703 5.92163,0.95703 l 2.21314,0 0,2.33276 -48.50952,0 0,-2.33276 6.34033,0 q 4.72534,0 6.87866,-1.2561 2.21314,-1.31592 2.21314,-4.00757 0,-1.67481 -0.89722,-4.06738 -0.8374,-2.39258 -3.76831,-8.6731 -0.17945,-0.35889 -0.53833,-1.19629 -0.35889,-0.8374 -0.77759,-1.61499 l -1.37573,-3.05054 -35.41016,0 -2.69165,6.22071 q -1.31592,3.17016 -1.31592,6.40014 0,2.75147 1.49536,5.44312 1.55518,2.69165 4.00757,4.06738 1.61499,0.95703 2.8711,1.31592 1.31591,0.29907 3.70849,0.4187 l 0,2.33276 -34.03442,0 0,-2.33276 q 3.70849,-0.4187 5.86181,-1.31592 2.21314,-0.89721 4.90479,-2.99072 6.34033,-4.90479 12.38159,-18.48267 l 26.55762,-60.11352 z" />
    </g>
    <g
       id="text5385"
       style="font-style:normal;font-weight:normal;font-size:40px;line-height:125%;font-family:sans-serif;letter-spacing:0px;word-spacing:0px;fill:#000000;fill-opacity:1;stroke:none;stroke-width:1px;stroke-linecap:butt;stroke-linejoin:miter;stroke-opacity:1">
      <path
         id="path3404"
         style="font-style:normal;font-variant:normal;font-weight:500;font-stretch:expanded;font-size:122.5px;font-family:'Engravers MT';-inkscape-font-specification:'Engravers MT Medium Expanded'"
         d="m 289.41599,139.8802 52.87597,0 0,2.09351 -2.45239,0 q -7.53662,0 -11.36475,3.82812 -3.82812,3.76831 -3.82812,11.48438 l 0,36.36719 39.59717,-31.70166 q 3.94775,-3.2898 5.26367,-5.32349 1.37573,-2.09351 1.37573,-4.84497 0,-4.48608 -3.82812,-7.11792 -3.82813,-2.69165 -10.40772,-2.69165 l -1.97388,0 0,-2.09351 48.86841,0 0,2.09351 -1.19629,0 q -10.10864,0 -28.77075,15.07324 l -16.44897,13.09937 25.2417,38.69995 q 4.18701,6.45996 8.79272,9.39087 4.66553,2.87109 10.82642,2.87109 l 1.55517,0 0,2.33276 -51.56006,0 0,-2.33276 2.69165,0 q 11.42456,0 11.42456,-5.3833 0,-0.95703 -0.53833,-2.03369 -0.47851,-1.13648 -2.03369,-3.58887 l -19.14062,-29.54834 -19.73877,15.79102 0,9.57031 q 0,7.65625 3.82812,11.42456 3.82813,3.76831 11.36475,3.76831 l 2.45239,0 0,2.33276 -52.75635,0 0,-2.33276 2.33277,0 q 7.71606,0 11.48437,-3.76831 3.82813,-3.76831 3.82813,-11.42456 l 0,-48.62915 q 0,-7.71607 -3.82813,-11.48438 -3.76831,-3.82812 -11.48437,-3.82812 l -2.45239,0 0,-2.09351 z" />
    </g>
    <g
       id="text5389"
       style="font-style:normal;font-weight:normal;font-size:40px;line-height:125%;font-family:sans-serif;letter-spacing:0px;word-spacing:0px;fill:#000000;fill-opacity:1;stroke:none;stroke-width:1px;stroke-linecap:butt;stroke-linejoin:miter;stroke-opacity:1">
      <path
         id="path3401"
         style="font-style:normal;font-variant:normal;font-weight:500;font-stretch:expanded;font-size:122.5px;font-family:'Engravers MT';-inkscape-font-specification:'Engravers MT Medium Expanded'"
         d="m 400.103,139.8802 88.88427,0 0,32.35962 -1.79443,0 q -2.45239,-8.49365 -4.42627,-12.68066 -1.91406,-4.24683 -5.02441,-8.01514 -3.76831,-4.48608 -8.19458,-6.40014 -7.35718,-3.05054 -17.88452,-3.05054 l -16.44898,0 0,39.71679 4.42627,0 q 9.86939,0 15.67139,-8.49365 2.99072,-4.36645 4.42627,-10.40771 0.71777,-2.57202 1.31591,-7.59644 l 2.09351,0 0,54.79004 -2.09351,0 q -0.71777,-4.42627 -1.73461,-8.31421 -0.95704,-3.94775 -2.21314,-6.40014 -1.19629,-2.4524 -3.11035,-4.90479 -5.3833,-6.6394 -15.3125,-6.6394 l -3.46924,0 0,37.38403 13.75733,0 q 6.10107,0 10.94604,-0.8374 4.90479,-0.89722 8.79272,-2.69165 3.88794,-1.85425 7.29737,-4.78516 5.86181,-4.9646 9.09179,-12.38159 1.85425,-4.24683 3.88794,-11.48438 l 2.21314,0 0,34.39331 -90.97778,0 -0.11963,-2.21313 2.27295,0 q 15.19287,0 15.19287,-15.3125 l 0,-48.62915 q 0,-7.77588 -3.7085,-11.48438 -3.7085,-3.70849 -11.48437,-3.70849 l -2.27295,0 0,-2.21314 z" />
    </g>
    <g
       id="text5393"
       style="font-style:normal;font-weight:normal;font-size:40px;line-height:125%;font-family:sans-serif;letter-spacing:0px;word-spacing:0px;fill:#000000;fill-opacity:1;stroke:none;stroke-width:1px;stroke-linecap:butt;stroke-linejoin:miter;stroke-opacity:1">
      <path
         id="path3398"
         style="font-style:normal;font-variant:normal;font-weight:500;font-stretch:expanded;font-size:122.5px;font-family:'Engravers MT';-inkscape-font-specification:'Engravers MT Medium Expanded'"
         d="m 542.40283,182.52791 -18.78174,0 0,23.38745 q 0,7.65625 3.76831,11.42456 3.76831,3.76831 11.42456,3.76831 l 2.4524,0 0,2.33276 -52.75635,0 0,-2.33276 2.27295,0 q 7.71606,0 11.42456,-3.7085 3.76831,-3.76831 3.76831,-11.48437 l 0,-48.62915 q 0,-7.77588 -3.7085,-11.48438 -3.70849,-3.70849 -11.48437,-3.70849 l -2.27295,0 0,-2.21314 64.77905,0 q 13.15918,0 20.81543,1.91407 7.65625,1.91406 12.14234,6.45996 2.57202,2.57202 4.06738,6.10107 1.55517,3.52905 1.55517,6.99829 0,9.45069 -9.80957,15.19287 -3.64868,1.97388 -9.92919,3.52906 -6.28052,1.55517 -12.50123,2.0935 -4.72534,0.35889 -14.41528,0.35889 l 0,0.23926 q 4.78516,3.11035 8.6731,5.14404 3.88794,2.03369 7.83569,3.46924 3.94775,1.37573 8.97217,2.5122 l 1.97388,2.99073 q 1.97387,2.87109 2.9309,4.30664 0.95703,1.43554 2.21314,3.28979 3.34961,5.08423 6.34033,8.85254 3.05054,3.7085 5.02441,5.20386 3.88794,2.57202 11.12549,2.57202 l 2.33277,0 0,2.33276 -31.34278,0 -28.89038,-40.91308 z m -18.78174,-2.21314 23.80616,0 q 8.43383,0 13.81713,-2.03369 5.44312,-2.0935 8.07496,-6.28052 2.69165,-4.24682 2.69165,-10.88623 0,-19.02099 -24.22486,-19.02099 l -24.16504,0 0,38.22143 z" />
    </g>
    <g
       id="text5397"
       style="font-style:normal;font-weight:normal;font-size:40px;line-height:125%;font-family:sans-serif;letter-spacing:0px;word-spacing:0px;fill:#000000;fill-opacity:1;stroke:none;stroke-width:1px;stroke-linecap:butt;stroke-linejoin:miter;stroke-opacity:1">
      <path
         id="path3395"
         style="font-style:normal;font-variant:normal;font-weight:500;font-stretch:expanded;font-size:122.5px;font-family:'Engravers MT';-inkscape-font-specification:'Engravers MT Medium Expanded'"
         d="m 674.37714,140.09984 2.0935,0 0,28.65112 -2.0935,0 q -3.76831,-10.3479 -8.55347,-16.1499 -3.46924,-4.06738 -8.73291,-7.11792 -5.20386,-3.11035 -11.72363,-4.84497 -6.45996,-1.79444 -13.09937,-1.79444 -4.9646,0 -8.85254,1.37574 -3.88794,1.37573 -6.57959,4.06738 -1.91406,1.91406 -3.05053,4.30664 -1.13648,2.39258 -1.13648,4.60571 0,4.18702 3.22998,7.23755 1.49536,1.49536 4.24683,2.8711 2.81128,1.37573 7.17773,2.69165 4.42627,1.31591 12.32178,3.22998 2.15332,0.65796 2.93091,0.77758 l 2.93091,0.71778 4.66552,1.19629 q 11.84326,3.05053 17.28638,5.3833 5.44311,2.33276 9.27124,6.16089 2.99072,2.81128 4.60571,6.57959 1.67481,3.76831 1.67481,8.13476 0,4.30664 -1.85425,8.6731 -1.85425,4.30664 -5.26367,7.59643 -4.42627,4.5459 -10.94605,6.81885 -6.45996,2.27295 -14.77417,2.27295 -5.802,0 -10.94604,-1.19629 -5.08423,-1.13647 -12.44141,-4.24682 -4.78515,-1.91407 -7.29736,-2.57203 -2.51221,-0.71777 -4.72534,-0.71777 -4.24683,0 -7.23755,2.27295 -2.93091,2.21313 -3.88794,6.34033 l -2.09351,0 0,-38.64014 2.09351,0 q 1.2561,10.28809 8.31421,18.66211 4.24682,4.90479 10.82641,9.15162 6.63941,4.18701 13.87696,6.51977 7.23755,2.33276 13.75732,2.33276 5.802,0 10.58716,-1.91406 4.84497,-1.91406 7.53662,-5.32348 2.69165,-3.40943 2.69165,-7.71607 0,-4.5459 -3.64868,-8.19458 -1.67481,-1.61499 -4.36646,-2.99072 -2.63183,-1.37573 -6.87866,-2.81128 -4.18701,-1.43555 -11.54419,-3.40942 l -5.98144,-1.61499 q -13.99659,-3.76832 -19.37989,-5.86182 -6.04126,-2.21314 -9.51049,-4.42627 -3.40943,-2.21314 -5.92164,-5.62256 -3.70849,-4.78516 -3.70849,-10.52734 0,-6.93848 4.1272,-12.44141 4.12719,-5.56274 11.54419,-8.6731 7.41699,-3.11035 16.44897,-3.11035 13.6377,0 28.29224,7.59644 5.14404,2.57202 6.99829,2.57202 4.66552,0 6.69922,-6.87866 z" />
    </g>
    <flowRoot
       xml:space="preserve"
       id="flowRoot5401"
       style="font-style:normal;font-weight:normal;font-size:40px;line-height:125%;font-family:sans-serif;letter-spacing:0px;word-spacing:0px;fill:#000000;fill-opacity:1;stroke:none;stroke-width:1px;stroke-linecap:butt;stroke-linejoin:miter;stroke-opacity:1"><flowRegion
         id="flowRegion5403"><rect
           id="rect5405"
           width="573.21259"
           height="109.18336"
           x="209.63205"
           y="141.05132" /></flowRegion><flowPara
         id="flowPara5407" /></flowRoot>  </g>
</svg>
